<svg width="32" height="32" viewBox="0 0 32 32" fill="none" xmlns="http://www.w3.org/2000/svg">
<path d="M4 14.6667V21.0669C4 22.5604 4 23.3067 4.29065 23.8772C4.54631 24.3789 4.95396 24.7873 5.45573 25.043C6.0256 25.3333 6.77199 25.3333 8.26255 25.3333H23.7375C25.228 25.3333 25.9733 25.3333 26.5432 25.043C27.045 24.7873 27.454 24.3789 27.7096 23.8772C28 23.3073 28 22.562 28 21.0714V14.6667M4 14.6667V12M4 14.6667H28M4 12V10.9336C4 9.44012 4 8.69282 4.29065 8.12239C4.54631 7.62063 4.95396 7.21298 5.45573 6.95731C6.02616 6.66666 6.77345 6.66666 8.26693 6.66666H23.7336C25.2271 6.66666 25.9728 6.66666 26.5432 6.95731C27.045 7.21298 27.454 7.62063 27.7096 8.12239C28 8.69227 28 9.43866 28 10.9292V12M4 12H28M9.33333 20H14.6667M28 14.6667V12" stroke="black" stroke-width="2" stroke-linecap="round" stroke-linejoin="round"/>
</svg>
