<svg width="56" height="56" viewBox="0 0 56 56" fill="none" xmlns="http://www.w3.org/2000/svg">
<path d="M56 28C56 43.464 43.464 56 28 56C12.536 56 0 43.464 0 28C0 12.536 12.536 0 28 0C43.464 0 56 12.536 56 28Z" fill="#DCA0D1"/>
<path d="M43.5417 27.2211L38.8111 22.4906V17.0261C38.8111 16.038 38.0105 15.2373 37.021 15.2373C36.0337 15.2373 35.233 16.038 35.233 17.0261V18.9126L31.7108 15.3902C29.9694 13.6497 26.9416 13.6528 25.2041 15.3933L13.3761 27.2211C12.6779 27.9207 12.6779 29.0528 13.3761 29.7513C14.0747 30.4507 15.2089 30.4507 15.9072 29.7513L27.7341 17.9232C28.1194 17.54 28.7985 17.54 29.1817 17.9221L41.0106 29.7513C41.3614 30.1011 41.8187 30.275 42.2759 30.275C42.734 30.275 43.192 30.1009 43.5417 29.7513C44.2402 29.0528 44.2402 27.9208 43.5417 27.2211Z" fill="black"/>
<path d="M29.0802 21.3188C28.7366 20.9754 28.1802 20.9754 27.8376 21.3188L17.4336 31.7197C17.2694 31.8839 17.1762 32.1081 17.1762 32.342V39.928C17.1762 41.7081 18.6196 43.1514 20.3996 43.1514H25.5506V35.1742H31.366V43.1514H36.5171C38.2971 43.1514 39.7404 41.7081 39.7404 39.9281V32.342C39.7404 32.1081 39.6481 31.8839 39.4831 31.7197L29.0802 21.3188Z" fill="black"/>
</svg>
