<svg width="56" height="56" viewBox="0 0 56 56" fill="none" xmlns="http://www.w3.org/2000/svg">
<circle cx="28" cy="28" r="28" fill="#E8C4E8" fill-opacity="0.909804"/>
<path d="M38.6667 34.6669V27.2696C38.6667 26.5572 38.6661 26.2008 38.5794 25.8692C38.5027 25.5754 38.3766 25.2974 38.2061 25.0462C38.0136 24.7627 37.7461 24.5276 37.2099 24.0584L30.8099 18.4584C29.8144 17.5874 29.3167 17.1521 28.7565 16.9864C28.2629 16.8405 27.7368 16.8405 27.2432 16.9864C26.6835 17.152 26.1865 17.5869 25.1925 18.4566L18.7904 24.0584C18.2542 24.5276 17.9867 24.7627 17.7943 25.0462C17.6237 25.2974 17.4967 25.5754 17.42 25.8692C17.3333 26.2008 17.3333 26.5572 17.3333 27.2696V34.6669C17.3333 35.9094 17.3333 36.5304 17.5363 37.0205C17.807 37.6739 18.3258 38.1936 18.9792 38.4643C19.4692 38.6673 20.0905 38.6673 21.333 38.6673C22.5755 38.6673 23.1975 38.6673 23.6875 38.4643C24.3409 38.1936 24.8596 37.674 25.1302 37.0206C25.3332 36.5305 25.3333 35.9093 25.3333 34.6668V33.3334C25.3333 31.8607 26.5273 30.6668 28 30.6668C29.4728 30.6668 30.6667 31.8607 30.6667 33.3334V34.6668C30.6667 35.9093 30.6667 36.5305 30.8697 37.0206C31.1403 37.674 31.6591 38.1936 32.3125 38.4643C32.8026 38.6673 33.4238 38.6673 34.6663 38.6673C35.9088 38.6673 36.5308 38.6673 37.0208 38.4643C37.6743 38.1936 38.1929 37.6739 38.4636 37.0205C38.6665 36.5304 38.6667 35.9094 38.6667 34.6669Z" stroke="black" stroke-width="2" stroke-linecap="round" stroke-linejoin="round"/>
</svg>
